<?xml version="1.0" encoding="UTF-8" standalone="no"?>
<!-- Created with Inkscape (http://www.inkscape.org/) -->

<svg
   width="32"
   height="32"
   viewBox="0 0 32 32"
   version="1.1"
   id="svg1"
   xmlns="http://www.w3.org/2000/svg"
   xmlns:svg="http://www.w3.org/2000/svg">
  <defs
     id="defs1" />
  <g
     id="layer1">
    <path
       d="m 2.6935116,26.100638 c 0.5269914,0 1.7859153,-0.292773 1.9030245,-1.639528 0,-0.351328 0,0 0,0 -0.058555,-2.430016 -0.087832,-3.747495 -0.087832,-4.684368 0,-0.966151 0.029277,-1.551697 0.087832,-2.576403 v -0.02928 0 -0.204941 c 2.1372429,-0.05856 5.0356956,-0.644101 6.7630559,-0.819765 0,5.504133 -0.234218,8.256199 -0.234218,8.344031 0,1.551697 1.52242,1.610251 1.639529,1.610251 0.526991,0 1.785915,-0.292773 1.903024,-1.580974 0,-0.292773 0,0 0,0 v -0.614823 c 0,-0.849042 0.02928,-1.903025 0.08783,-3.161949 0.05856,-1.053982 0.08783,-2.137242 0.08783,-3.24978 0,-0.526991 -0.02928,-1.08326 -0.02928,-1.668806 -0.02928,-1.171092 -0.05856,-2.137243 -0.05856,-2.986285 0,-2.04941 0.08783,-3.366889 0.08783,-5.1820816 0,-1.0832601 -0.673378,-1.7273607 -1.668806,-1.7273607 h -0.117109 c -1.551697,0.029277 -1.698084,1.6102515 -1.698084,1.8737472 -0.05855,2.1665202 -0.08783,3.0741161 -0.08783,3.7767721 0,0.673378 0.02928,1.463865 0.05856,2.342184 -0.76121,0.05855 -1.4053103,0.175663 -2.0786882,0.263495 -1.171092,0.175664 -2.4592932,0.380605 -4.5672588,0.409882 0,0 -0.058555,-3.659662 -0.058555,-4.01099 0,-1.7273603 0.1463865,-1.7859149 0.1463865,-2.869175 0,-1.1125374 -0.6733779,-1.7859153 -1.6688061,-1.7859153 H 2.9862772 C 1.4345803,5.9578527 1.2881938,7.4802726 1.2881938,7.714491 v 0.029277 0 c 0,0.3220503 -0.029277,0.4977141 -0.029277,0.7026552 -0.029277,0.292773 -0.058555,0.6148233 -0.058555,1.4053104 0,0.029277 0.058555,1.4638654 0.058555,3.0741164 0,1.932302 -0.1463865,4.420873 -0.1463865,9.251627 0,1.698084 -0.058555,2.342184 -0.058555,2.371461 0,1.493143 1.5224196,1.551697 1.6395288,1.551697 z m 26.6130414,0 c 0.152831,0.504343 -1.785915,-0.292773 -1.903024,-1.639528 0,-0.351328 0,0 0,0 0.05855,-2.430016 0.08783,-3.747495 0.08783,-4.684368 0,-0.966151 -0.02928,-1.551697 -0.08783,-2.576403 v -0.02928 0 -0.204941 c -2.137243,-0.05856 -5.035696,-0.644101 -6.763057,-0.819765 0,5.504133 0.234219,8.256199 0.234219,8.344031 0,1.551697 -1.52242,1.610251 -1.639529,1.610251 -0.526991,0 -1.785915,-0.292773 -1.903025,-1.580974 0,-0.292773 0,0 0,0 v -0.614823 c 0,-0.849042 -0.02928,-1.903025 -0.08783,-3.161949 -0.05855,-1.053982 -0.08783,-2.137242 -0.08783,-3.24978 0,-0.526991 0.02928,-1.08326 0.02928,-1.668806 0.02928,-1.171092 0.05855,-2.137243 0.05855,-2.986285 0,-2.04941 -0.08783,-3.366889 -0.08783,-5.1820816 0,-1.0832601 0.673378,-1.7273607 1.668806,-1.7273607 h 0.117109 c 1.551697,0.029277 1.698083,1.6102515 1.698083,1.8737472 0.05855,2.1665202 0.08783,3.0741161 0.08783,3.7767721 0,0.673378 -0.02928,1.463865 -0.05855,2.342184 0.761209,0.05855 1.40531,0.175663 2.078688,0.263495 1.171092,0.175664 2.459293,0.380605 4.567259,0.409882 0,0 0.05855,-3.659662 0.05855,-4.01099 0,-1.7273603 -0.146386,-1.7859149 -0.146386,-2.869175 0,-1.1125374 0.673378,-1.7859153 1.668806,-1.7859153 h 0.117109 c 1.551697,0.029277 1.698084,1.5516969 1.698084,1.7859153 v 0.029277 0 c 0,0 0.02928,0.4977141 0.02928,0.7026552 0.02928,0.292773 0.05855,0.6148233 0.05855,1.4053104 0,0.029277 -0.05855,1.4638654 -0.05855,3.0741164 0,1.932302 0.146386,4.420873 0.146386,9.251627 0,1.698084 0.05855,2.342184 0.05855,2.371461 0,1.493143 -1.673491,1.439621 -1.639529,1.551697 z"
       id="text2"
       style="font-weight:bold;font-size:29.2773px;font-family:'ComicShannsMono Nerd Font';-inkscape-font-specification:'ComicShannsMono Nerd Font, Bold';fill:#ffffff;stroke-width:58.5545;stroke-linecap:round;stroke-linejoin:round;paint-order:markers fill stroke"
       aria-label="HH" />
  </g>
</svg>
